<?xml version="1.0" standalone="no"?>
<!DOCTYPE svg PUBLIC "-//W3C//DTD SVG 20010904//EN"
 "http://www.w3.org/TR/2001/REC-SVG-20010904/DTD/svg10.dtd">
<svg version="1.0" xmlns="http://www.w3.org/2000/svg"
 width="200.000000pt" height="200.000000pt" viewBox="0 0 200.000000 200.000000"
 preserveAspectRatio="xMidYMid meet">
<metadata>
Created by potrace 1.11, written by Peter Selinger 2001-2013
</metadata>
<g transform="translate(0.000000,200.000000) scale(0.100000,-0.100000)"
fill="#000000" stroke="none">
<path d="M258 1736 l-258 -260 0 -738 0 -738 741 0 741 0 259 257 259 257 0
743 0 743 -742 -2 -743 -1 -257 -261z m262 -36 l0 -220 -220 0 c-121 0 -220 3
-220 7 0 10 423 433 432 433 5 0 8 -99 8 -220z m-220 -482 c24 -57 46 -106 49
-110 3 -4 26 42 51 102 41 100 47 110 71 110 l26 0 11 -152 c15 -196 16 -188
-8 -188 -27 0 -27 3 -35 145 l-7 119 -18 -44 c-76 -197 -89 -202 -151 -59 -42
96 -44 99 -46 62 -15 -235 -13 -223 -40 -223 -24 0 -25 2 -20 43 4 23 9 83 12
132 10 150 13 165 40 165 20 0 29 -15 65 -102z m768 79 c4 -20 -25 -34 -40
-19 -15 15 -1 44 19 40 10 -2 19 -11 21 -21z m-438 -267 c24 -16 47 -11 77 14
24 21 28 32 33 102 4 66 8 79 23 80 15 2 17 -10 17 -122 0 -117 -1 -124 -20
-124 -15 0 -20 7 -20 25 l0 24 -25 -24 c-31 -32 -96 -34 -125 -5 -17 17 -20
33 -20 119 0 87 2 100 18 103 15 3 18 -8 22 -90 4 -67 9 -95 20 -102z m341
183 c5 -5 7 -17 3 -26 -5 -13 -10 -14 -25 -6 -31 16 -74 7 -77 -17 -2 -16 8
-25 48 -44 74 -34 89 -73 48 -117 -26 -28 -84 -31 -130 -7 -27 14 -29 17 -15
31 12 12 19 13 36 3 33 -17 76 -9 76 15 0 14 -14 27 -44 41 -76 36 -93 85 -43
124 21 17 36 21 70 17 24 -3 48 -9 53 -14z m319 2 c26 -13 28 -18 18 -34 -11
-17 -14 -18 -32 -5 -29 20 -69 17 -100 -7 -21 -16 -26 -29 -26 -64 0 -35 5
-48 26 -64 31 -25 81 -27 111 -6 19 13 22 13 27 -2 10 -26 -18 -45 -72 -51
-87 -8 -142 41 -142 127 0 43 35 96 74 111 33 14 85 11 116 -5z m-220 -115 l0
-120 -25 0 -25 0 0 120 0 120 25 0 25 0 0 -120z m-701 -197 c31 -26 38 -82 14
-112 -19 -24 -19 -24 4 -47 16 -16 23 -34 23 -61 -1 -71 -36 -93 -149 -93
l-81 0 0 165 0 165 84 0 c65 0 89 -4 105 -17z m261 -88 c43 -22 60 -53 60
-107 0 -137 -187 -176 -242 -51 -17 40 -18 49 -6 86 24 75 115 110 188 72z
m149 -30 l29 -45 26 45 c20 34 33 45 51 45 14 0 25 -2 25 -5 0 -3 -16 -30 -36
-60 l-37 -55 37 -55 c20 -30 36 -57 36 -60 0 -3 -11 -5 -25 -5 -18 0 -31 11
-51 45 l-26 45 -29 -45 c-22 -34 -35 -45 -54 -45 l-25 0 26 43 c15 23 33 50
41 59 13 15 10 23 -26 77 l-42 61 26 0 c19 0 32 -11 54 -45z m1151 -268 c0 -1
-101 -103 -225 -227 l-225 -225 0 228 0 227 225 0 c124 0 225 -1 225 -3z
m-1571 -22 c54 -28 62 -105 15 -155 l-23 -25 35 -65 c40 -76 41 -80 12 -80
-18 0 -31 15 -59 68 -33 62 -37 67 -72 70 l-37 3 0 -71 c0 -68 -1 -71 -22 -68
-23 3 -23 5 -26 171 l-2 167 75 0 c47 0 87 -6 104 -15z m541 -150 c0 -144 -2
-166 -16 -172 -10 -4 -22 0 -28 9 -10 14 -14 14 -31 2 -26 -19 -86 -17 -111 4
-33 26 -44 55 -44 112 0 46 4 56 34 86 38 38 85 45 124 18 l22 -15 0 60 c0 58
1 61 25 61 l25 0 0 -165z m90 145 c0 -24 -26 -38 -42 -22 -16 16 -2 42 22 42
13 0 20 -7 20 -20z m-383 -94 c27 -23 28 -29 31 -126 l4 -102 -24 4 c-16 2
-22 8 -20 22 3 17 2 17 -24 -3 -58 -46 -134 -15 -134 54 0 29 6 39 33 55 18
12 50 20 75 20 34 0 42 3 42 19 0 38 -42 49 -109 30 -26 -7 -25 30 1 40 44 18
95 12 125 -13z m383 -104 c0 -119 -1 -123 -21 -120 -19 3 -21 9 -20 121 0 64
0 118 1 120 0 1 9 3 20 3 19 0 20 -7 20 -124z m257 84 c75 -81 18 -206 -95
-206 -52 0 -102 35 -121 84 -13 33 -13 44 0 79 20 60 69 90 133 84 41 -4 55
-11 83 -41z"/>
<path d="M230 830 l0 -50 44 0 c50 0 76 19 76 54 0 34 -19 46 -72 46 l-48 0 0
-50z"/>
<path d="M230 685 l0 -55 53 0 c61 0 77 11 77 55 0 44 -16 55 -77 55 l-53 0 0
-55z"/>
<path d="M511 773 c-12 -10 -24 -35 -28 -55 -5 -32 -1 -41 25 -68 36 -35 69
-38 105 -10 33 26 43 70 23 108 -24 46 -85 58 -125 25z"/>
<path d="M230 410 l0 -60 49 0 c40 0 53 4 65 22 36 51 3 98 -69 98 l-45 0 0
-60z"/>
<path d="M748 370 c-9 -6 -22 -26 -28 -45 -10 -30 -9 -41 7 -73 14 -30 24 -38
50 -40 46 -5 73 26 73 81 0 69 -50 107 -102 77z"/>
<path d="M512 280 c-48 -20 -35 -70 19 -70 30 0 59 31 59 62 0 20 -38 24 -78
8z"/>
<path d="M1095 355 c-53 -53 -16 -145 58 -145 74 0 109 98 52 147 -35 30 -79
30 -110 -2z"/>
</g>
</svg>
