<?xml version="1.0" standalone="no"?>
<!DOCTYPE svg PUBLIC "-//W3C//DTD SVG 20010904//EN"
 "http://www.w3.org/TR/2001/REC-SVG-20010904/DTD/svg10.dtd">
<svg version="1.0" xmlns="http://www.w3.org/2000/svg"
 width="460.000000pt" height="460.000000pt" viewBox="0 0 460.000000 460.000000"
 preserveAspectRatio="xMidYMid meet">
<metadata>
Created by potrace 1.14, written by Peter Selinger 2001-2017
</metadata>
<g transform="translate(0.000000,460.000000) scale(0.100000,-0.100000)"
fill="#000000" stroke="none">
<path d="M668 4013 c-321 -321 -585 -586 -587 -589 -3 -3 -5 -3364 -2 -3411 1
-10 338 -13 1649 -13 l1647 0 578 581 577 581 0 1717 0 1718 -1640 0 -1640 0
-582 -584z m3537 -1228 l1 -1470 -489 -492 -489 -491 -1408 0 -1408 0 0 1473
0 1472 487 491 486 491 1410 -2 1410 -2 0 -1470z"/>
</g>
</svg>
